HIERARCHY
ROOT Pelvis
{
	OFFSET 0.000000 0.000000 0.000000
	CHANNELS 6 Xposition Yposition Zposition Zrotation Yrotation Xrotation 
	JOINT Left_hip
	{
		OFFSET 0.068973 -0.091024 -0.007589
		CHANNELS 3 Zrotation Yrotation Xrotation
		JOINT Left_knee
		{
			OFFSET 0.036482 -0.391037 -0.003979
			CHANNELS 3 Zrotation Yrotation Xrotation
			JOINT Left_ankle
			{
				OFFSET -0.012239 -0.415469 -0.043440
				CHANNELS 3 Zrotation Yrotation Xrotation
				JOINT Left_foot
				{
					OFFSET 0.023806 -0.058558 0.118702
					CHANNELS 3 Zrotation Yrotation Xrotation
					End Site
					{
						OFFSET 0.000000 0.000000 0.000000
					}
				}
			}
		}
	}
	JOINT Right_hip
	{
		OFFSET -0.066552 -0.090468 -0.003847
		CHANNELS 3 Zrotation Yrotation Xrotation
		JOINT Right_knee
		{
			OFFSET -0.042435 -0.398340 -0.006400
			CHANNELS 3 Zrotation Yrotation Xrotation
			JOINT Right_ankle
			{
				OFFSET 0.014931 -0.415421 -0.041327
				CHANNELS 3 Zrotation Yrotation Xrotation
				JOINT Right_foot
				{
					OFFSET -0.021472 -0.049410 0.121889
					CHANNELS 3 Zrotation Yrotation Xrotation
					End Site
					{
						OFFSET 0.000000 0.000000 0.000000
					}
				}
			}
		}
	}
	JOINT Spine1
	{
		OFFSET -0.002904 0.105700 -0.022855
		CHANNELS 3 Zrotation Yrotation Xrotation
		JOINT Spine2
		{
			OFFSET 0.004179 0.132554 -0.002501
			CHANNELS 3 Zrotation Yrotation Xrotation
			JOINT Spine3
			{
				OFFSET 0.001987 0.049603 0.025988
				CHANNELS 3 Zrotation Yrotation Xrotation
				JOINT Neck
				{
					OFFSET -0.003935 0.211336 -0.045638
					CHANNELS 3 Zrotation Yrotation Xrotation
					JOINT Head
					{
						OFFSET 0.003906 0.065991 0.051018
						CHANNELS 3 Zrotation Yrotation Xrotation
						End Site
						{
							OFFSET 0.000000 0.000000 0.000000
						}
					}
				}
				JOINT Left_collar
				{
					OFFSET 0.072882 0.117751 -0.036270
					CHANNELS 3 Zrotation Yrotation Xrotation
					JOINT Left_shoulder
					{
						OFFSET 0.082118 0.032630 -0.005771
						CHANNELS 3 Zrotation Yrotation Xrotation
						JOINT Left_elbow
						{
							OFFSET 0.263305 -0.015144 -0.028095
							CHANNELS 3 Zrotation Yrotation Xrotation
							JOINT Left_wrist
							{
								OFFSET 0.250741 0.010115 -0.000759
								CHANNELS 3 Zrotation Yrotation Xrotation
								JOINT Left_palm
								{
									OFFSET 0.080683 -0.009989 -0.013613
									CHANNELS 3 Zrotation Yrotation Xrotation
									End Site
									{
										OFFSET 0.000000 0.000000 0.000000
									}
								}
							}
						}
					}
				}
				JOINT Right_collar
				{
					OFFSET -0.074811 0.116132 -0.040385
					CHANNELS 3 Zrotation Yrotation Xrotation
					JOINT Right_shoulder
					{
						OFFSET -0.085089 0.032943 -0.007484
						CHANNELS 3 Zrotation Yrotation Xrotation
						JOINT Right_elbow
						{
							OFFSET -0.254763 -0.014219 -0.020321
							CHANNELS 3 Zrotation Yrotation Xrotation
							JOINT Right_wrist
							{
								OFFSET -0.256597 0.009233 -0.005063
								CHANNELS 3 Zrotation Yrotation Xrotation
								JOINT Right_palm
								{
									OFFSET -0.080528 -0.007219 -0.010379
									CHANNELS 3 Zrotation Yrotation Xrotation
									End Site
									{
										OFFSET 0.000000 0.000000 0.000000
									}
								}
							}
						}
					}
				}
			}
		}
	}
}
MOTION
Frames: 16
Frame Time: 0.100000
0.207676 0.028817 0.024088 172.830132 12.728264 -21.934131 -4.823850 5.795430 -3.163415 -4.093531 7.515237 11.396025 4.760700 26.155649 -4.093342 5.818200 2.256950 -3.121306 17.545698 -4.449953 12.452522 4.162910 0.752679 -3.108486 -4.629800 -17.965905 -3.615416 12.671837 4.709826 12.515117 -5.813890 7.272146 2.699910 8.056963 -3.316047 17.961065 2.772867 1.083949 2.776496 14.059797 7.785864 40.357984 3.520369 -15.251552 8.912718 7.017073 9.951928 -0.958473 0.646387 -15.546047 -22.820539 12.501017 -6.589552 -6.711284 15.917327 -14.601134 43.091222 -2.523429 -1.023357 -13.687249 18.276118 5.614735 5.299340 50.098173 1.699037 10.894900 -5.753520 20.926363 10.073239 -11.986434 13.602941 1.162474 3.640086 -0.770987 7.118311 
0.207700 0.027982 0.021005 172.371113 11.897306 -21.588042 -4.536555 5.902173 -2.935064 -3.683220 7.835868 9.421265 5.355854 26.136611 -3.122013 5.147967 2.604540 -3.089970 17.877849 -4.394037 12.919661 4.369614 1.146369 -5.219965 -4.351596 -16.850211 -1.333280 13.080360 3.970864 12.530637 -6.101935 7.152041 2.100764 9.008767 -3.514011 17.873674 2.984620 0.943466 3.210890 16.260615 6.026199 41.843149 3.862294 -15.856099 10.491781 7.308452 12.194537 -0.512576 -0.979055 -15.090953 -22.185792 12.907614 -6.889582 -5.709148 19.403578 -16.360879 42.129177 -1.754504 -0.174446 -12.193899 18.400920 3.806038 4.834498 51.486872 2.446628 11.245186 -7.223047 20.448685 10.652105 -16.726635 13.898750 3.128784 2.825750 -1.383986 7.972164 
0.205587 0.028564 0.015980 172.352603 11.387347 -21.604012 -4.686939 6.053181 -2.613905 -3.499954 8.110786 8.307612 5.210141 26.092809 -3.054940 5.603000 2.690183 -2.684566 17.720599 -4.288403 13.068324 4.452138 1.260740 -5.764800 -4.383745 -16.241822 -0.887439 13.348804 3.621263 12.584874 -5.176138 7.081422 2.404630 9.050263 -3.486288 18.083134 2.997832 1.089534 3.143806 16.458877 4.998685 42.200776 3.756766 -16.006204 10.478220 6.772431 11.875664 -0.732377 -2.180732 -14.668322 -21.956561 13.636207 -6.169846 -7.419076 18.183519 -15.471261 42.046446 -1.727316 -0.340255 -11.927205 17.976175 4.775621 5.012435 49.954598 3.033832 11.495599 -5.729296 21.341418 12.329991 -13.807412 13.983865 4.948134 2.306924 -1.325487 7.598906 
0.199994 0.028826 0.011299 172.105082 11.898950 -21.869896 -5.066766 6.223743 -2.048590 -3.464597 7.792981 7.325480 4.811556 25.669627 -3.240385 5.999042 2.881167 -2.412841 17.393443 -4.343355 13.326032 4.530987 1.123221 -6.497358 -4.748164 -15.901151 -0.266095 13.908598 2.842373 12.771158 -3.779960 6.755457 2.680757 9.386936 -3.733457 18.118498 3.217625 1.082813 3.142906 16.023441 4.240430 41.814037 3.195175 -15.674503 9.641262 6.133860 10.451271 -0.747578 -3.744624 -14.272689 -20.958286 13.686345 -5.940046 -7.018679 18.630449 -15.641168 41.036447 -1.798744 -0.495586 -11.505707 17.262317 6.021901 4.806009 47.321214 3.498044 10.951411 -5.052596 23.360405 12.840219 -14.097656 14.548113 5.924818 2.575438 -1.469896 6.907662 
0.192651 0.028983 0.007256 171.839520 12.017158 -21.629543 -5.469076 6.335441 -1.840546 -3.395679 7.692778 6.108751 4.641012 25.239543 -3.370088 5.902051 3.168186 -2.168177 17.095166 -4.215542 13.401845 4.560015 1.215767 -7.505474 -4.889015 -15.737751 -0.367192 14.507776 2.141058 13.252253 -2.642895 6.394630 2.288332 9.876418 -4.029860 17.565820 3.433065 1.077750 3.072806 15.969685 2.802108 41.397103 3.146694 -15.652276 9.392262 5.785777 9.712254 -0.543707 -5.007450 -13.617716 -20.005957 14.065331 -6.874175 -6.220073 19.723401 -15.988089 39.501687 -1.989090 -0.684231 -11.086567 16.571796 6.769628 4.481678 45.137413 4.711559 10.217133 -5.671413 25.611357 12.632120 -16.289342 15.197649 6.909595 2.926410 -1.643629 6.303609 
0.184597 0.029239 0.004278 171.873635 11.291027 -21.823362 -5.655773 6.768097 -1.440536 -3.486507 7.968920 5.677790 4.447278 25.044876 -3.405232 6.121225 3.207009 -2.231810 16.715287 -4.130342 13.567267 4.492726 1.458575 -7.227923 -4.779262 -15.511242 -0.721735 14.455879 1.889655 13.388874 -1.521821 6.172027 2.134764 10.149492 -4.082129 17.077902 3.531626 1.218355 3.117346 15.789123 1.661389 40.496685 2.909476 -15.998152 9.328206 5.408828 8.963219 -0.482737 -5.775216 -12.695296 -19.510247 14.187631 -6.869361 -6.003695 20.128626 -16.084463 38.224937 -2.127824 -0.917715 -10.819565 16.224115 7.860172 4.321698 43.368601 5.547163 9.550018 -5.673189 28.663416 12.023850 -17.369018 15.851557 6.654452 3.057138 -1.925698 5.895419 
0.179681 0.029219 0.004270 171.556508 11.014304 -22.061302 -5.453606 6.719020 -1.485972 -3.518247 8.306731 6.261428 4.635175 24.768891 -3.198440 6.020180 3.595955 -2.394131 16.837578 -4.047007 13.865267 4.453188 1.496714 -7.378224 -4.884079 -15.255128 -0.154321 14.288975 1.468977 12.972464 -1.594117 5.993239 1.802089 10.507720 -4.362801 16.393282 3.764965 0.974938 2.945528 16.480586 1.139092 38.964688 3.515408 -16.607938 8.511434 5.644743 8.549336 -0.412262 -5.811528 -12.128276 -19.433323 14.346424 -6.658779 -5.860857 19.461252 -15.661565 37.928889 -1.934610 -0.799147 -10.408186 16.188470 8.285627 4.004878 43.394643 5.672914 9.907144 -5.578374 31.663138 13.029825 -17.039611 16.037061 6.760765 2.948598 -2.197349 6.077989 
0.177283 0.029245 0.005076 171.377592 11.035854 -22.518610 -5.093681 6.934061 -1.397716 -3.781178 8.577968 7.286021 4.594502 24.411091 -3.345074 5.895869 3.807212 -2.913669 16.965894 -4.095676 14.091277 4.306410 1.356290 -6.861551 -4.829592 -15.340767 -0.329502 13.805914 1.522571 12.509249 -1.945373 5.880604 1.833502 10.406287 -4.358329 16.071154 3.722399 0.769497 2.878015 16.580799 1.539264 37.024808 3.741848 -17.601197 6.962778 5.956308 8.452428 -0.412236 -5.830049 -12.160525 -19.404081 14.800773 -7.522498 -5.610626 19.179929 -15.820161 38.216059 -1.849759 -0.710106 -10.562827 16.471120 8.223755 3.902576 45.047343 4.706869 10.490181 -5.953862 33.648435 13.693734 -17.219061 16.080570 5.834683 2.909425 -2.234610 6.413552 
0.175358 0.029342 0.006434 171.225196 11.256279 -22.823239 -4.859698 7.143298 -1.326901 -4.006004 8.841023 8.009369 4.391823 24.222146 -3.522810 5.906795 3.651715 -3.267699 16.999806 -4.240624 14.442078 4.220641 1.336810 -6.850328 -4.908387 -15.367593 -0.455055 13.759576 1.782224 12.376651 -1.956887 5.839627 1.789210 10.096084 -4.292367 15.992538 3.535153 0.648344 2.754998 16.074781 2.745146 36.157618 3.097849 -17.779305 6.158574 5.933377 8.386721 -0.530067 -5.816420 -12.503487 -19.433552 14.823433 -7.681991 -5.551920 18.741302 -16.260622 39.074889 -1.721776 -0.684653 -10.756169 16.824311 7.994291 4.056537 46.406850 3.417805 11.015340 -5.406127 32.404411 14.608226 -16.450051 16.023387 5.635558 2.829170 -1.987546 6.542611 
0.173123 0.029087 0.007806 171.078917 11.480316 -22.971610 -4.927028 7.304519 -0.929922 -4.034725 8.508664 7.709096 4.158027 24.493359 -3.615829 6.161039 3.079282 -3.366854 16.930610 -4.376439 14.580622 4.245624 1.506311 -6.702237 -5.279301 -15.702575 -0.510626 14.406872 2.258672 12.561669 -1.803593 5.792784 1.579846 9.963610 -4.204766 16.180995 3.380348 0.654151 2.558508 15.724192 3.296183 35.917277 2.424674 -17.436296 6.661917 5.502142 8.626846 -0.528905 -5.417708 -12.984619 -19.598058 14.423592 -7.278431 -5.714892 19.144898 -16.365699 39.899797 -1.733747 -0.905802 -10.801203 17.354767 7.549961 4.389347 46.479580 2.767104 11.192054 -4.395225 27.747177 15.061713 -15.805398 15.481174 6.425789 2.756162 -1.409785 6.531326 
0.169889 0.029025 0.008220 170.965726 11.677872 -23.099261 -5.055262 7.419908 -0.667645 -4.071854 8.164108 7.622564 3.756282 24.788439 -3.911150 6.556143 2.545601 -3.401207 16.765603 -4.529334 14.875183 4.243577 1.842570 -6.939851 -5.618330 -15.975069 -0.399019 14.946123 2.678692 12.768414 -1.473498 5.837173 1.566935 10.081045 -4.122174 16.582067 3.365360 0.732956 2.438216 15.726854 2.341896 35.753040 2.547235 -18.136899 6.249614 5.053970 9.234175 -0.397370 -5.234727 -13.375229 -19.785026 13.967279 -7.089876 -6.039746 19.392174 -16.505496 40.576792 -1.921072 -1.171424 -11.050507 17.601336 7.035749 4.632423 45.852755 2.387838 10.676873 -3.944120 22.705435 14.424909 -15.396406 14.919243 7.201772 2.599414 -0.886246 6.400283 
0.166015 0.028888 0.007762 170.830400 11.992045 -23.031683 -5.170184 7.667235 -0.401338 -4.213683 7.985677 7.118816 3.108309 24.644133 -4.262470 7.134067 2.222036 -3.024891 16.477876 -4.693759 15.188655 4.333491 1.998884 -7.695323 -5.953849 -15.960932 0.016709 15.374821 2.825159 12.655465 -1.016706 5.726959 1.927656 10.348064 -4.086992 16.840535 3.453257 0.675589 2.247054 15.096850 -0.334323 33.684094 3.234471 -21.417669 2.834795 4.838655 9.760048 -0.267528 -5.349792 -13.125722 -19.885603 13.683806 -6.613604 -6.898751 19.090143 -16.559039 41.426069 -1.543390 -1.164804 -11.286129 17.892430 7.162106 4.577114 44.589354 2.045401 10.054704 -3.515387 19.046152 13.916873 -14.841725 14.498663 8.132599 1.788524 -0.718969 6.299649 
0.161540 0.027901 0.008256 170.938137 11.878616 -23.059054 -5.571835 7.746434 0.055777 -3.828036 8.053943 6.759701 2.528597 24.457321 -4.359121 7.761877 2.138636 -2.698094 16.081724 -4.718258 15.720865 4.269616 2.293990 -8.272120 -6.043432 -15.796559 0.493272 15.148528 3.088584 11.739251 -0.439755 5.613880 2.499381 10.521053 -3.889934 16.925725 3.552548 0.666818 1.824240 13.960223 -4.629174 28.840223 5.149025 -26.967316 -4.098978 4.921961 9.809604 -0.381991 -5.873182 -12.344828 -19.676785 13.892473 -6.874961 -7.904192 18.045780 -16.389190 42.557323 -0.903320 -1.088103 -11.536294 18.064657 8.575630 4.342302 43.567349 2.125109 9.904370 -2.965726 17.101276 14.197859 -13.851493 14.268972 9.085034 0.528955 -0.730252 6.188859 
0.157076 0.026614 0.011899 171.522093 10.867665 -23.535411 -5.823811 7.567008 0.714582 -3.692783 8.574380 7.518469 2.775037 24.095676 -4.242974 7.840222 3.137298 -2.535317 15.710902 -4.461330 16.468363 3.917186 2.406656 -7.420503 -5.858155 -15.415017 -0.174469 14.339140 2.252250 10.675630 0.185884 5.457489 2.834377 10.581678 -3.740569 16.189141 3.761241 0.550492 1.989314 13.730443 -7.416566 23.837384 7.413437 -30.333103 -11.030462 5.042314 8.704145 -0.788806 -7.113456 -9.923718 -18.709704 14.755382 -8.280845 -7.883644 16.111658 -15.531673 42.276743 -0.521384 -0.952858 -11.302283 17.412551 10.258141 3.589017 42.438684 0.984655 10.317645 -1.802139 28.002049 17.661661 -12.524049 14.894974 9.157590 0.330608 -1.450082 5.814203 
0.154059 0.024930 0.017682 172.362371 9.267028 -23.489684 -6.206572 7.427652 1.395591 -3.551339 9.707399 7.164024 3.747947 23.442580 -3.910368 7.556058 4.875514 -1.545030 15.433476 -3.701649 17.001191 3.530595 2.170955 -6.781593 -4.614251 -14.354621 -1.085145 12.117783 0.100680 9.267624 0.708214 4.920801 2.424977 10.451330 -4.003728 13.662889 3.818551 0.072174 2.890405 13.239534 -8.937955 20.963771 9.464905 -30.866948 -15.672104 5.645372 7.209778 -1.698703 -8.855591 -5.947236 -16.151450 15.526227 -9.744309 -6.666030 15.891647 -15.403397 36.599638 -0.031504 0.127035 -9.896730 14.967266 11.792873 0.768262 42.389801 -0.128150 12.405346 6.218858 53.281293 24.922082 -14.817601 17.663452 -0.340112 0.812115 -4.027018 6.530846 
0.153061 0.023831 0.021645 173.534357 6.630117 -23.117033 -6.573162 7.488836 2.052529 -3.409473 11.740383 5.917931 4.567036 23.066161 -3.936584 8.658506 6.402355 0.228618 14.985357 -2.651965 17.613555 3.428694 1.819149 -6.716123 -2.323384 -12.226163 -1.833364 8.234307 -2.332182 7.114831 1.390648 4.714453 2.011698 10.478944 -4.209863 11.536331 4.031795 -0.006938 3.603204 12.983386 -9.738364 18.608360 11.325394 -30.439521 -19.334318 6.319009 5.408819 -2.894652 -10.978821 -1.400297 -13.271912 16.585997 -10.623156 -6.236708 15.095945 -15.114022 28.974032 0.535965 1.659484 -8.860974 12.477887 16.088222 -2.405699 42.774272 2.688633 15.455058 64.576089 80.206336 78.565300 -17.709649 21.253064 -17.140867 0.356094 -7.989107 8.239209 
